# AST/ASF file generated using VICON BodyLanguage
# -----------------------------------------------
:version 1.10
:name VICON
:units
  mass 1.0
  length 0.45
  angle deg
:documentation
   .ast/.asf automatically generated from VICON data using
   VICON BodyBuilder and BodyLanguage model FoxedUp or BRILLIANT.MOD
:root
   order TX TY TZ RX RY RZ
   axis XYZ
   position 0 0 0  
   orientation 0 0 0 
:bonedata
  begin
     id 1 
     name lhipjoint
     direction 0.521452 -0.77106 0.36545 
     length 2.0933 
     axis 0 0 0  XYZ
  end
  begin
     id 2 
     name lfemur
     direction 0.34202 -0.939693 0  
     length 6.83441  
     axis 0 0 20  XYZ
    dof rx ry rz
    limits (-160.0 20.0)
           (-70.0 70.0)
           (-60.0 70.0)
  end
  begin
     id 3 
     name ltibia
     direction 0.34202 -0.939693 0   
     length 7.28749   
     axis 0 0 20   XYZ
    dof rx
    limits (-10.0 170.0)
  end
  begin
     id 4 
     name lfoot
     direction 0.100608 -0.276418 0.955757   
     length 1.52195   
     axis -90 7.62852e-016 20   XYZ
    dof rx rz
    limits (-45.0 90.0)
           (-70.0 20.0)
  end
  begin
     id 5 
     name ltoes
     direction 1.53558e-011 -4.21907e-011 1   
     length 0.770459   
     axis -90 7.62852e-016 20   XYZ
    dof rx
    limits (-90.0 20.0)
  end
  begin
     id 6 
     name rhipjoint
     direction -0.488071 -0.788702 0.373812   
     length 2.04648  
     axis 0 0 0  XYZ 
  end
  begin
     id 7 
     name rfemur
     direction -0.34202 -0.939693 0   
     length 6.92583   
     axis 0 0 -20   XYZ
    dof rx ry rz
    limits (-160.0 20.0)
           (-70.0 70.0)
           (-70.0 60.0)
  end
  begin
     id 8 
     name rtibia
     direction -0.34202 -0.939693 0   
     length 7.41043   
     axis 0 0 -20   XYZ
    dof rx
    limits (-10.0 170.0)
 end
 begin
     id 9 
     name rfoot
     direction -0.0784433 -0.215521 0.973343   
     length 1.67708  
     axis -90 -7.62852e-016 -20   XYZ
    dof rx rz
    limits (-45.0 90.0)
           (-20.0 70.0)
  end
  begin
     id 10 
     name rtoes
     direction -1.53551e-011 -4.21842e-011 1   
     length 0.849787   
     axis -90 -7.62852e-016 -20   XYZ
    dof rx
    limits (-90.0 20.0)
  end
  begin
     id 11 
     name lowerback
     direction -0.0122332 0.997575 -0.0685192   
     length 1.98724   
     axis 0 0 0   XYZ
    dof rx ry rz
    limits (-20.0 45.0)
           (-30.0 30.0)
           (-30.0 30.0)
  end
  begin
     id 12 
     name upperback
     direction 0.0182347 0.999724 -0.0148421   
     length 1.99029   
     axis 0 0 0   XYZ
    dof rx ry rz
    limits (-20.0 45.0)
           (-30.0 30.0)
           (-30.0 30.0)
  end
  begin
     id 13 
     name thorax
     direction 0.0242908 0.99956 0.0170184   
     length 1.99573   
     axis 0 0 0   XYZ
    dof rx ry rz
    limits (-20.0 45.0)
           (-30.0 30.0)
           (-30.0 30.0)
  end
  begin
     id 14 
     name lowerneck
     direction 0.0654488 0.985533 0.156338   
     length 1.4285   
     axis 0 0 0   XYZ
    dof rx ry rz
    limits (-20.0 45.0)
           (-30.0 30.0)
           (-30.0 30.0)
  end
  begin
     id 15 
     name upperneck
     direction -0.02953 0.998556 -0.0448842   
     length 1.44709   
     axis 0 0 0   XYZ
    dof rx ry rz
    limits (-20.0 45.0)
           (-30.0 30.0)
           (-30.0 30.0)
  end
  begin
     id 16
     name head
     direction -0.0155588 0.999386 -0.0314063  
     length 1.44689  
     axis 0 0 0   XYZ
    dof rx ry rz
    limits (-20.0 45.0)
           (-30.0 30.0)
           (-30.0 30.0)
  end
  begin
     id 17 
     name lclavicle
     direction 0.968229 0.236071 -0.0824755  
     length 3.60593  
     axis 0 0 0   XYZ
    dof ry rz
    limits (-20.0 10.0)
           (0.0 20.0)
  end
  begin
     id 18 
     name lhumerus
     direction 1 -4.48968e-011 7.8138e-029   
     length 5.06035   
     axis 180 -30 -90   XYZ
    dof rx ry rz
    limits (-60.0 90.0)
           (-90.0 90.0)
           (-90.0 90.0)
  end
  begin
     id 19
     name lradius
     direction 1 -4.48967e-011 9.02887e-028   
     length 3.1478   
     axis 180 -30 -90   XYZ
    dof rx
    limits (-10.0 170.0)
  end
  begin
     id 20
     name lwrist
     direction 1 -4.48961e-011 7.20928e-028   
     length 1.5739   
     axis -5.52449e-016 90 90   XYZ
    dof ry
    limits (-180.0 0.0)
 end
  begin
     id 21 
     name lhand
     direction 1 -4.48972e-011 1.44186e-027   
     length 0.606747   
     axis -9.20027e-016 90 90   XYZ
    dof rx rz
    limits (-90.0 90.0)
           (-45.0 45.0)
  end
  begin
     id 22 
     name lfingers
     direction 1 -4.48943e-011 2.88371e-027   
     length 0.489175   
     axis -1.84005e-015 90 90   XYZ
    dof rx
    limits (0.0 90.0)
  end
  begin
     id 23
     name lthumb
     direction 0.707107 -6.34917e-011 0.707107   
     length 0.70236   
     axis -90 45 2.85299e-015   XYZ
    dof rx rz
    limits (-45.0 45.0)
           (-45.0 45.0)
  end
  begin
     id 24 
     name rclavicle
     direction -0.978165 0.207816 0.0022268   
     length 3.35425  
     axis 0 0 0   XYZ 
    dof ry rz
    limits (-10.0 20.0)
           (-20.0 0.0)
  end
  begin
     id 25 
     name rhumerus
     direction -1 -4.48964e-011 -4.02159e-027  
     length 5.12273   
     axis 180 30 90   XYZ
    dof rx ry rz
    limits (-90.0 60.0)
           (-90.0 90.0)
           (-90.0 90.0)
  end
  begin
     id 26 
     name rradius
     direction -1 -4.48966e-011 1.62746e-027   
     length 3.422   
     axis 180 30 90   XYZ
    dof rx
    limits (-10.0 170.0)
  end
  begin
     id 27 
     name rwrist
     direction -1 -4.4896e-011 7.20928e-028   
     length 1.711   
     axis -5.52449e-016 -90 -90   XYZ
    dof ry
    limits (-180.0 0.0)
  end
  begin
     id 28
     name rhand
     direction -1 -4.48979e-011 1.44186e-027   
     length 0.704599   
     axis -9.20027e-016 -90 -90   XYZ
    dof rx rz
    limits (-90.0 90.0)
           (-45.0 45.0)
  end
  begin
     id 29
     name rfingers
     direction -1 -4.48962e-011 2.88371e-027   
     length 0.568066   
     axis -1.84005e-015 -90 -90   XYZ
    dof rx
    limits (0.0 90.0)
  end
  begin
     id 30
     name rthumb
     direction -0.707107 -6.34949e-011 0.707107   
     length 0.815633   
     axis -90 -45 -2.85299e-015   XYZ
    dof rx rz
    limits (-45.0 45.0)
           (-45.0 45.0)
  end
:hierarchy
  begin
    root lhipjoint rhipjoint lowerback
    lhipjoint lfemur
    lfemur ltibia
    ltibia lfoot
    lfoot ltoes
    rhipjoint rfemur
    rfemur rtibia
    rtibia rfoot
    rfoot rtoes
    lowerback upperback
    upperback thorax
    thorax lowerneck lclavicle rclavicle
    lowerneck upperneck
    upperneck head
    lclavicle lhumerus
    lhumerus lradius
    lradius lwrist
    lwrist lhand lthumb
    lhand lfingers
    rclavicle rhumerus
    rhumerus rradius
    rradius rwrist
    rwrist rhand rthumb
    rhand rfingers
  end

#!OML:ASF E:\id_vita\Project 1\Capture day 1\Session 1\Male1.ASF
:FULLY-SPECIFIED
:DEGREES
1
root 50.4138 16.3527 4.28766 -168.612 -86.7005 178.036
lowerback -3.64604 -0.538628 -2.57988
upperback -3.07675 -0.71368 -0.229039
thorax -1.0877 -0.341134 1.19235
lowerneck -9.18529 -0.174519 4.31521
upperneck 6.9633 -0.923385 1.1444
head 3.91362 -0.291186 -0.444828
rclavicle -9.57894e-015 4.17448e-015
rhumerus -30.3147 -21.4933 -79.0807
rradius 17.8521
rwrist 17.2565
rhand -15.9789 36.6997
rfingers 7.12502
rthumb 10.2205 6.96797
lclavicle -9.57894e-015 4.17448e-015
lhumerus -27.8208 18.0841 80.7929
lradius 13.9377
lwrist -13.7247
lhand -14.3952 44.6824
lfingers 7.12502
lthumb 11.7481 74.333
rfemur -12.047 2.3118 13.327
rtibia 21.8887
rfoot -15.5869 -15.3183
rtoes -12.4723
lfemur -14.3808 0.292945 -19.8026
ltibia 29.7435
lfoot -27.4046 7.61106
ltoes 16.9323
2
root 50.3969 16.3474 4.30948 -159.988 -87.6813 169.339
lowerback -3.42032 -0.998668 -2.81746
upperback -3.21208 -1.33202 -0.073277
thorax -1.32069 -0.641312 1.47382
lowerneck -8.63265 -0.0925175 4.42092
upperneck 6.26765 -0.742632 0.766787
head 3.56072 -0.23069 -0.572197
rclavicle 7.45443e-015 3.97569e-015
rhumerus -30.6001 -21.1547 -78.7367
rradius 17.853
rwrist 17.1341
rhand -17.2914 35.8156
rfingers 7.12502
rthumb 8.95416 6.02564
lclavicle 7.45443e-015 3.97569e-015
lhumerus -28.435 19.0218 80.5324
lradius 13.9044
lwrist -14.3287
lhand -14.2684 44.7129
lfingers 7.12502
lthumb 11.8703 74.3565
rfemur -11.5811 2.44721 13.0456
rtibia 21.8551
rfoot -15.7137 -16.2468
rtoes -11.8982
lfemur -14.3917 0.264148 -20.0532
ltibia 29.759
lfoot -27.1234 6.70391
ltoes 16.1262
3
root 50.3961 16.3495 4.33144 -164.042 -86.7716 173.742
lowerback -3.46155 -0.762828 -2.88078
upperback -3.47746 -1.0261 0.0660221
thorax -1.58223 -0.482409 1.66159
lowerneck -8.72225 0.132773 4.22597
upperneck 6.5443 -0.440428 0.900491
head 3.68167 -0.0746443 -0.477348
rclavicle 8.94842e-015 -7.95139e-016
rhumerus -30.8961 -21.0009 -78.4366
rradius 17.9254
rwrist 16.9302
rhand -17.5635 35.5539
rfingers 7.12502
rthumb 8.69161 5.75285
lclavicle 8.94842e-015 -7.95139e-016
lhumerus -28.9107 19.7892 80.2736
lradius 13.8673
lwrist -14.9446
lhand -14.2459 44.5864
lfingers 7.12502
lthumb 11.892 74.2287
rfemur -12.2472 2.52271 12.8557
rtibia 21.887
rfoot -15.5634 -15.5988
rtoes -14.5142
lfemur -14.6652 0.424901 -20.2322
ltibia 29.767
lfoot -27.3733 7.28818
ltoes 15.9098
4
root 50.3729 16.3399 4.35537 -161.868 -87.0594 171.477
lowerback -3.38224 -0.855584 -2.80062
upperback -3.43502 -1.15116 0.075805
thorax -1.57757 -0.546155 1.62482
lowerneck -8.73958 0.112543 4.63826
upperneck 6.04345 -0.470577 0.483709
head 3.50961 -0.105839 -0.688585
rclavicle 9.38636e-015 5.96354e-015
rhumerus -31.0365 -20.9403 -78.3243
rradius 18.1634
rwrist 16.4869
rhand -17.456 35.3746
rfingers 7.12502
rthumb 8.79534 5.57789
lclavicle 9.38636e-015 5.96354e-015
lhumerus -28.9594 20.079 80.1935
lradius 13.6371
lwrist -15.3128
lhand -14.4189 44.5614
lfingers 7.12502
lthumb 11.7252 74.2132
rfemur -11.9731 2.80523 12.7178
rtibia 21.912
rfoot -15.4273 -16.1678
rtoes -13.0875
lfemur -14.5522 0.616296 -20.3561
ltibia 29.7708
lfoot -27.3129 6.84423
ltoes 17.5588
5
root 50.371 16.3418 4.38414 -165.407 -86.4373 175.336
lowerback -3.35457 -0.617346 -2.61742
upperback -3.56117 -0.842557 0.142631
thorax -1.7392 -0.392773 1.59868
lowerneck -9.71723 0.441196 4.19673
upperneck 6.97988 -0.100514 1.05074
head 4.0411 0.112058 -0.404826
rclavicle -1.15544e-015 -2.98177e-015
rhumerus -31.0423 -21.0904 -78.1223
rradius 18.2561
rwrist 16.3487
rhand -17.3694 35.2211
rfingers 7.12502
rthumb 8.87888 5.42788
lclavicle -1.15544e-015 -2.98177e-015
lhumerus -28.9525 20.5429 80.1027
lradius 13.3715
lwrist -15.9738
lhand -14.3781 44.6695
lfingers 7.12502
lthumb 11.7645 74.3191
rfemur -12.5348 2.93523 12.6244
rtibia 21.9494
rfoot -15.48 -15.6659
rtoes -13.2398
lfemur -14.8387 0.818969 -20.4308
ltibia 29.7675
lfoot -27.4936 7.20911
ltoes 16.7152
6
root 50.3534 16.3353 4.40462 -155.449 -87.6035 165.205
lowerback -3.0327 -0.936812 -2.69702
upperback -3.25134 -1.26183 0.0597477
thorax -1.58032 -0.602149 1.55214
lowerneck -10.9979 0.420683 4.57077
upperneck 6.8928 -0.224151 0.792589
head 4.26792 0.0528791 -0.570779
rclavicle -1.18028e-015 -3.77691e-015
rhumerus -30.5169 -21.8855 -78.012
rradius 18.189
rwrist 16.4811
rhand -17.1478 35.302
rfingers 7.12502
rthumb 9.09276 5.51801
lclavicle -1.18028e-015 -3.77691e-015
lhumerus -28.3129 20.9924 80.1141
lradius 13.0815
lwrist -16.8541
lhand -14.1419 44.7603
lfingers 7.12502
lthumb 11.9922 74.3967
rfemur -11.9422 3.18618 12.4036
rtibia 22.0392
rfoot -15.5348 -17.0231
rtoes -13.2748
lfemur -14.7317 1.14122 -20.6358
ltibia 29.743
lfoot -27.1469 5.72035
ltoes 15.183
7
root 50.3282 16.3311 4.42724 -153.338 -87.5069 163.207
lowerback -3.29608 -0.868229 -2.9495
upperback -3.43408 -1.166 0.150726
thorax -1.62024 -0.548484 1.78629
lowerneck -9.82675 0.364935 4.89414
upperneck 6.17987 -0.224823 0.403794
head 3.77956 0.024672 -0.752411
rclavicle -2.06146e-014 5.06901e-015
rhumerus -31.0701 -21.8785 -77.5091
rradius 18.3346
rwrist 16.2064
rhand -17.0203 35.4026
rfingers 7.12502
rthumb 9.21573 5.62401
lclavicle -2.06146e-014 5.06901e-015
lhumerus -28.7881 21.3899 79.9281
lradius 12.8467
lwrist -17.5144
lhand -14.092 44.4964
lfingers 7.12502
lthumb 12.0404 74.13
rfemur -12.017 3.2961 12.1648
rtibia 22.1325
rfoot -16.3244 -16.8989
rtoes -11.39
lfemur -14.742 1.34273 -20.8584
ltibia 29.7264
lfoot -27.2863 5.43412
ltoes 18.1467
8
root 50.3137 16.3296 4.45941 -155.414 -87.2388 165.422
lowerback -3.35723 -0.820479 -2.86374
upperback -3.55044 -1.10615 0.264786
thorax -1.70845 -0.517948 1.85691
lowerneck -9.36442 0.383102 4.95279
upperneck 5.82838 -0.152891 0.169863
head 3.56708 0.0438098 -0.832575
rclavicle -3.94153e-015 -5.86415e-015
rhumerus -31.2409 -21.7233 -77.2231
rradius 18.3872
rwrist 16.0269
rhand -17.1119 35.4033
rfingers 7.12502
rthumb 9.12739 5.62077
lclavicle -3.94153e-015 -5.86415e-015
lhumerus -29.0099 22.2492 79.6651
lradius 12.5643
lwrist -18.3797
lhand -14.0955 44.5476
lfingers 7.12502
lthumb 12.037 74.1815
rfemur -12.2395 3.05937 12.007
rtibia 22.2133
rfoot -17.0887 -16.1918
rtoes -9.20069
lfemur -14.7862 1.3602 -21.015
ltibia 29.7052
lfoot -27.3835 5.51851
ltoes 17.0624
9
root 50.2965 16.3201 4.48341 -151.179 -87.6339 160.887
lowerback -2.90812 -1.07162 -2.76926
upperback -3.44349 -1.44776 0.352035
thorax -1.83091 -0.686391 1.89457
lowerneck -9.68998 0.615885 4.81635
upperneck 5.75929 0.154595 0.216356
head 3.61409 0.194469 -0.775186
rclavicle -1.1102e-014 -1.28962e-014
rhumerus -31.0935 -21.6608 -77.0943
rradius 18.3293
rwrist 15.9588
rhand -16.9326 35.4623
rfingers 7.12502
rthumb 9.30037 5.68748
lclavicle -1.1102e-014 -1.28962e-014
lhumerus -29.0353 23.1763 79.3732
lradius 12.3633
lwrist -19.2515
lhand -14.0885 45.1798
lfingers 7.12502
lthumb 12.0438 74.8132
rfemur -11.6854 3.33014 11.9258
rtibia 22.2788
rfoot -17.4801 -16.6345
rtoes -7.94598
lfemur -14.4187 1.64638 -21.0994
ltibia 29.6876
lfoot -27.3229 4.67076
ltoes 16.8998
10
root 50.2859 16.324 4.51485 -152.974 -87.3512 163.185
lowerback -3.16801 -0.931069 -2.59041
upperback -3.56454 -1.26304 0.302066
thorax -1.82441 -0.599751 1.74251
lowerneck -10.0896 0.706119 4.8889
upperneck 5.8528 0.232063 0.300564
head 3.72823 0.240518 -0.756775
rclavicle -8.46776e-015 -3.31722e-015
rhumerus -31.0384 -22.2679 -76.8249
rradius 18.2401
rwrist 16.1935
rhand -16.5916 35.6416
rfingers 7.12502
rthumb 9.62938 5.8817
lclavicle -8.46776e-015 -3.31722e-015
lhumerus -28.9051 23.6288 79.1454
lradius 12.0728
lwrist -20.1294
lhand -14.1062 45.0057
lfingers 7.12502
lthumb 12.0267 74.6402
rfemur -12.3322 3.46291 11.7079
rtibia 22.3477
rfoot -17.6016 -16.403
rtoes -8.01732
lfemur -14.9303 1.75608 -21.3028
ltibia 29.6965
lfoot -27.501 4.71904
ltoes 17.1567
